<svg id="visual" viewBox="0 0 960 300" width="960" height="300" xmlns="http://www.w3.org/2000/svg" xmlns:xlink="http://www.w3.org/1999/xlink" version="1.1"><path d="M0 221L137 175L274 202L411 224L549 192L686 206L823 195L960 187L960 301L823 301L686 301L549 301L411 301L274 301L137 301L0 301Z" fill="#f5ebdc"></path><path d="M0 199L137 227L274 235L411 203L549 226L686 239L823 201L960 214L960 301L823 301L686 301L549 301L411 301L274 301L137 301L0 301Z" fill="#beab9b"></path><path d="M0 227L137 243L274 230L411 218L549 249L686 240L823 236L960 223L960 301L823 301L686 301L549 301L411 301L274 301L137 301L0 301Z" fill="#8b6f61"></path><path d="M0 250L137 270L274 260L411 259L549 251L686 256L823 255L960 258L960 301L823 301L686 301L549 301L411 301L274 301L137 301L0 301Z" fill="#5a3730"></path><path d="M0 280L137 280L274 284L411 267L549 270L686 265L823 277L960 272L960 301L823 301L686 301L549 301L411 301L274 301L137 301L0 301Z" fill="#2b0200"></path></svg>